HIERARCHY
ROOT hip
{
	OFFSET 0.000000 0.000000 0.000000 
	CHANNELS 6 Xposition Yposition Zposition Xrotation Zrotation Yrotation
	JOINT abdomen
	{
		OFFSET 0.000000 3.402643 0.000000 
		CHANNELS 3 Xrotation Zrotation Yrotation
		JOINT chest
		{
			OFFSET 0.000000 8.438565 -0.680529 
			CHANNELS 3 Xrotation Zrotation Yrotation
			JOINT neck
			{
				OFFSET 0.000000 10.207942 -0.272212 
				CHANNELS 3 Xrotation Zrotation Yrotation
				JOINT head
				{
					OFFSET 0.000000 3.130431 0.000000 
					CHANNELS 3 Xrotation Zrotation Yrotation
					End Site
					{
						OFFSET 0.000000 3.130435 0.000000 
					}
				}
			}
			JOINT lCollar
			{
				OFFSET 3.470700 6.669187 -0.816635 
				CHANNELS 3 Yrotation Zrotation Xrotation
				JOINT lShldr
				{
					OFFSET 3.198488 0.000000 0.000000 
					CHANNELS 3 Zrotation Yrotation Xrotation
					JOINT lForeArm
					{
						OFFSET 10.139888 0.000000 0.000000 
						CHANNELS 3 Yrotation Zrotation Xrotation
						JOINT lHand
						{
							OFFSET 8.370511 0.000000 0.000000 
							CHANNELS 3 Zrotation Yrotation Xrotation
							End Site
							{
								OFFSET 4.083176 0.000000 0.000000 
							}
						}
					}
				}
			}
			JOINT rCollar
			{
				OFFSET -3.470700 6.669187 -0.816635 
				CHANNELS 3 Yrotation Zrotation Xrotation
				JOINT rShldr
				{
					OFFSET -3.198488 0.000000 0.000000 
					CHANNELS 3 Zrotation Yrotation Xrotation
					JOINT rForeArm
					{
						OFFSET -10.139888 0.000000 0.000000 
						CHANNELS 3 Yrotation Zrotation Xrotation
						JOINT rHand
						{
							OFFSET -8.370511 0.000000 0.000000 
							CHANNELS 3 Zrotation Yrotation Xrotation
							End Site
							{
								OFFSET -4.083176 0.000000 0.000000 
							}
						}
					}
				}
			}
		}
	}
	JOINT lThigh
	{
		OFFSET 5.308129 -1.633274 1.361059 
		CHANNELS 3 Xrotation Zrotation Yrotation
		JOINT lShin
		{
			OFFSET -2.041588 -20.007561 0.000000 
			CHANNELS 3 Xrotation Zrotation Yrotation
			JOINT lFoot
			{
				OFFSET 0.000000 -19.190928 -1.224953 
				CHANNELS 3 Xrotation Yrotation Zrotation
				End Site
				{
					OFFSET 0.000000 -2.449906 4.627600 
				}
			}
		}
	}
	JOINT rThigh
	{
		OFFSET -5.308129 -1.633274 1.361059 
		CHANNELS 3 Xrotation Zrotation Yrotation
		JOINT rShin
		{
			OFFSET 2.041588 -20.007561 0.000000 
			CHANNELS 3 Xrotation Zrotation Yrotation
			JOINT rFoot
			{
				OFFSET 0.000000 -19.190928 -1.224953 
				CHANNELS 3 Xrotation Yrotation Zrotation
				End Site
				{
					OFFSET 0.000000 -2.449906 4.627600 
				}
			}
		}
	}
}
MOTION
Frames: 6
Frame Time: 0.033333
-0.007021 49.905613 1.938065 -6.610846 -1.328092 0.400283 0.000000 0.000000 0.000000 18.752779 0.874776 -5.557184 -22.851175 2.538984 0.450075 18.963270 -0.790413 2.236519 -3.530578 9.144053 6.304086 -103.073166 -14.619441 20.389114 -25.842657 26.463232 16.233974 -2.971427 17.710697 -9.049303 3.080928 -14.100136 8.026277 111.141167 17.478464 40.686539 37.840580 -23.330923 63.851879 28.044981 -7.036057 -7.315752 0.731906 11.882772 15.116939 21.275160 -5.713334 -9.147086 -10.047559 -1.002567 7.067710 3.414036 -6.664685 -15.053222 20.508423 0.885321 -0.481809 -12.840345 0.063068 -1.298633 
0.564432 49.784611 1.962360 -7.053479 -1.259359 1.455371 0.000000 0.000000 0.000000 18.933826 1.360162 -5.812149 -23.615885 2.900364 -0.244322 18.747917 -0.663711 1.865336 -3.530578 9.144053 6.304086 -103.561920 -15.563935 24.980068 -25.983952 26.417694 15.608070 0.701926 16.275236 -8.776299 3.080928 -14.100136 8.026277 101.366814 14.422202 38.330284 60.297955 -11.759986 59.706295 23.428379 -8.526294 -7.953414 0.565093 11.450586 14.830149 22.398329 -5.752805 -9.836687 -11.002540 -1.095546 7.426598 3.474627 -7.487514 -15.866834 21.839188 0.856203 -0.716143 -12.918396 0.182915 -1.913869 
1.182655 49.575638 1.951450 -7.244801 -0.770976 2.080153 0.000000 0.000000 0.000000 18.888594 1.146561 -5.743184 -24.528021 3.134561 -0.654920 19.396059 -0.946859 1.679781 -3.530578 9.144053 6.304086 -103.268616 -16.072395 26.612553 -29.165293 24.963583 16.312141 1.988568 14.866538 -8.657906 3.080928 -14.100136 8.026277 95.538361 13.604103 37.744823 73.758148 -6.341792 53.898281 20.196983 -9.364218 -8.240275 0.154403 10.518546 14.342347 23.645136 -5.910112 -9.813307 -12.206380 -1.171994 7.504834 2.557027 -8.776686 -16.685780 24.510731 0.250782 -0.252240 -13.393842 0.358386 -2.896296 
1.802214 49.330750 1.969483 -7.787280 -0.097571 2.392575 0.000000 0.000000 0.000000 19.410866 0.243080 -5.341831 -25.417830 3.426892 -1.271347 19.878782 -1.366781 1.396786 -3.530578 9.144053 6.304086 -100.582428 -15.538141 26.978405 -36.943726 20.839582 16.666868 3.180048 14.900995 -8.667853 3.080928 -14.100136 8.026277 90.979515 13.624177 36.566296 84.911957 -2.803517 47.456081 18.741682 -10.296903 -8.508999 -0.235426 9.263997 13.643284 25.736050 -5.734901 -9.027028 -14.031978 -1.186949 7.076216 1.228001 -10.228029 -17.358130 28.512537 -0.901617 0.074658 -12.909885 0.474828 -3.640645 
2.443249 49.038353 1.930944 -7.979396 1.131342 2.920509 0.000000 0.000000 0.000000 19.798124 -1.146038 -5.997429 -26.071621 3.416648 -1.594205 19.888388 -1.220473 1.113445 -3.530578 9.144053 6.304086 -99.179420 -15.747450 28.820652 -40.732254 19.325207 15.222663 8.451731 11.947964 -8.534045 3.080928 -14.100136 8.026277 87.805176 14.608152 34.925308 94.257927 -0.225640 42.107681 18.115808 -10.484499 -8.554993 -1.103545 7.169560 12.398647 27.683510 -5.422948 -8.036866 -15.727959 -1.297724 7.193758 -1.407686 -12.445150 -17.938353 34.240200 -2.526823 0.520760 -11.666043 0.431694 -3.597512 
2.964696 48.772099 1.986763 -8.727571 1.890723 3.635021 0.000000 0.000000 0.000000 20.887491 -2.202351 -6.547871 -26.895718 3.182060 -1.780023 19.498158 -0.947169 0.820362 -3.530578 9.144053 6.304086 -96.495148 -15.419876 29.698090 -46.893967 16.384861 16.403921 10.633113 11.988794 -8.540078 3.080928 -14.100136 8.026277 85.196457 15.893598 32.225311 102.400352 1.853318 35.877655 16.600496 -11.832994 -8.862803 -0.976485 5.784463 11.557656 29.116848 -5.191614 -7.973646 -17.281334 -1.664642 8.470770 -3.516122 -13.955080 -18.076298 39.936604 -4.048837 -0.387752 -9.095841 0.189347 -2.462730 
